<svg height="512pt" viewBox="0 -5 512.00136 512" width="512pt" xmlns="http://www.w3.org/2000/svg"><path d="m10 197.820312c19.410156 19.40625 50.878906 19.40625 70.289062 0 19.40625-19.410156 50.875-19.410156 70.285157 0 19.40625 19.40625 50.875 19.40625 70.285156 0 19.410156-19.410156 50.875-19.410156 70.285156 0 19.410157 19.40625 50.878907 19.40625 70.285157 0 19.410156-19.410156 50.878906-19.410156 70.289062 0 19.40625 19.40625 50.875 19.40625 70.285156 0v304.175782h-492.003906zm0 0" fill="#c9f3ff"/><g fill="#72d8ff"><path d="m382.886719 295.804688-84.742188 48.925781c-12.4375 7.179687-16.699219 23.082031-9.519531 35.519531l22 38.105469c7.179688 12.433593 23.082031 16.695312 35.519531 9.515625l84.742188-48.925782c12.4375-7.179687 16.695312-23.082031 9.515625-35.519531l-22-38.105469c-7.179688-12.433593-23.078125-16.695312-35.515625-9.515624zm0 0"/><path d="m334.886719 212.667969-84.742188 48.925781c-12.4375 7.179688-16.695312 23.082031-9.519531 35.515625l22 38.105469c7.179688 12.4375 23.082031 16.695312 35.519531 9.515625l84.742188-48.925781c12.4375-7.179688 16.695312-23.082032 9.515625-35.515626l-22-38.105468c-7.179688-12.4375-23.078125-16.699219-35.515625-9.515625zm0 0"/><path d="m286.886719 129.527344-84.742188 48.929687c-12.4375 7.179688-16.695312 23.078125-9.519531 35.515625l22 38.105469c7.179688 12.433594 23.082031 16.695313 35.519531 9.515625l84.742188-48.925781c12.4375-7.179688 16.695312-23.082031 9.515625-35.519531l-22-38.101563c-7.179688-12.4375-23.078125-16.699219-35.515625-9.519531zm0 0"/><path d="m168.320312 75.585938-9.390624 35.324218c-5.210938 19.601563-2.441407 40.464844 7.699218 58.027344 7.179688 12.4375 23.082032 16.695312 35.515625 9.519531l84.746094-48.929687c12.433594-7.179688 16.695313-23.082032 9.515625-35.515625-10.140625-17.5625-26.824219-30.394531-46.402344-35.679688l-35.289062-9.53125"/></g><path d="m192.714844 10.695312-46.398438 26.785157c-2.492187 1.441406-3.347656 4.628906-1.90625 7.121093l16.785156 29.078126c1.441407 2.492187 4.628907 3.347656 7.125 1.90625l46.394532-26.785157c2.492187-1.441406 3.347656-4.628906 1.90625-7.125l-16.785156-29.074219c-1.441407-2.492187-4.628907-3.347656-7.121094-1.90625zm0 0" fill="#898998"/><path d="m100 419.996094c0 9.941406-8.058594 18-18 18s-18-8.058594-18-18 8.058594-18 18-18 18 8.058594 18 18zm0 0" fill="#fff"/><path d="m146 278.699219c0 9.941406-8.058594 18-18 18s-18-8.058594-18-18c0-9.941407 8.058594-18 18-18s18 8.058593 18 18zm0 0" fill="#fff"/><path d="m502 292.316406c0 9.941406-8.058594 18-18 18s-18-8.058594-18-18 8.058594-18 18-18 18 8.058594 18 18zm0 0" fill="#fff"/><path d="m452.660156 365.742188c2.488282-9.285157 1.210938-18.988282-3.597656-27.316407l-22-38.105469c-5.101562-8.839843-13.417969-14.6875-22.628906-16.941406.074218-.257812.15625-.511718.226562-.773437 2.488282-9.289063 1.210938-18.988281-3.597656-27.316407l-22-38.105468c-2.824219-4.898438-6.640625-8.875-11.042969-11.835938.160157-.15625.324219-.300781.480469-.457031 7.5-7.496094 17.46875-11.628906 28.070312-11.628906 10.605469 0 20.574219 4.132812 28.074219 11.628906 11.636719 11.636719 26.925781 17.457031 42.214844 17.457031 15.285156 0 30.574219-5.820312 42.210937-17.457031 3.90625-3.90625 3.90625-10.238281 0-14.140625-3.902343-3.90625-10.234374-3.90625-14.140624 0-15.480469 15.476562-40.664063 15.476562-56.144532 0-11.273437-11.277344-26.269531-17.488281-42.214844-17.488281-14.375 0-27.964843 5.0625-38.765624 14.316406-.378907-5.371094-1.96875-10.628906-4.742188-15.425781l-22-38.105469c-5.105469-8.847656-13.429688-14.695313-22.648438-16.949219 2.660157-9.105468 1.753907-19.238281-3.351562-28.085937-11.542969-19.992188-30.171875-34.316407-52.457031-40.335938l-25.5-6.886719c-.296875-1.773437-.898438-3.503906-1.824219-5.109374l-16.785156-29.074219c-4.195313-7.265625-13.515625-9.765625-20.78125-5.570313h-.003906l-46.394532 26.789063c-7.265625 4.195312-9.761718 13.515625-5.566406 20.78125l16.785156 29.074219c.941406 1.628906 2.140625 3.007812 3.515625 4.136718l-6.789062 25.527344c-5.929688 22.308594-2.835938 45.605469 8.703125 65.597656 5.109375 8.84375 13.433594 14.691406 22.648437 16.941406-1.03125 3.535157-1.53125 7.21875-1.453125 10.925782-7.882812-1.308594-15.449218-4.988282-21.519531-11.058594-23.277344-23.277344-61.148437-23.273438-84.425781 0-7.5 7.5-17.46875 11.628906-28.070313 11.628906-10.605469 0-20.574219-4.128906-28.074219-11.628906-3.90625-3.90625-10.234374-3.90625-14.140624 0-3.90625 3.90625-3.90625 10.238281 0 14.140625 23.277343 23.277344 61.152343 23.277344 84.429687 0 7.496094-7.496094 17.464844-11.625 28.070313-11.625 10.601562 0 20.570312 4.128906 28.070312 11.625 11.6875 11.691406 27.058594 17.503906 42.410156 17.453125l20.054688 34.734375c4.808594 8.328125 12.570312 14.285156 21.859375 16.773437.261719.070313.523437.117188.785156.183594-2.65625 9.105469-1.75 19.234375 3.355469 28.074219l22 38.105469c5.105468 8.847656 13.429687 14.691406 22.644531 16.941406-2.65625 9.109375-1.753906 19.246094 3.355469 28.089844l22 38.105468c6.660156 11.535157 18.785156 17.992188 31.234375 17.992188 6.105469 0 12.285156-1.550781 17.941406-4.8125l84.742187-48.929688c8.332032-4.808593 14.289063-12.570312 16.777344-21.859374zm-138.917968-221.699219 22 38.105469c2.140624 3.703124 2.707031 8.011718 1.601562 12.140624-.785156 2.925782-2.355469 5.5-4.511719 7.515626-12.222656 2.027343-25.210937-1.652344-34.617187-11.058594-11.273438-11.273438-26.269532-17.484375-42.214844-17.484375s-30.9375 6.210937-42.210938 17.484375c-4.269531 4.265625-9.273437 7.351562-14.605468 9.265625.320312-5.183594 3.136718-10.113281 7.960937-12.898438l84.742188-48.925781c7.640625-4.410156 17.449219-1.785156 21.855469 5.855469zm-120.171876-122.296875 11.996094 20.785156-38.101562 22-12-20.785156zm-18.28125 142.191406c-8.878906-15.375-11.257812-33.296875-6.695312-50.457031l8.320312-31.3125 39.203126-22.628907 31.273437 8.445313c17.144531 4.628906 31.472656 15.648437 40.351563 31.027344 2.136718 3.699219 2.703124 8.011719 1.601562 12.140625-1.109375 4.125-3.753906 7.574218-7.453125 9.710937 0 0 0 .003907-.003906.003907l-84.742188 48.925781c-7.640625 4.414062-17.445312 1.785156-21.855469-5.855469zm48 83.136719-16.496093-28.566407c7.710937-2.898437 14.941406-7.425781 21.136719-13.617187 7.5-7.5 17.46875-11.628906 28.070312-11.628906 10.605469 0 20.574219 4.128906 28.070312 11.628906 6.125 6.121094 13.261719 10.617187 20.871094 13.515625l-59.796875 34.527344c-3.703125 2.136718-8.015625 2.703125-12.140625 1.597656-4.128906-1.105469-7.578125-3.753906-9.714844-7.457031zm48 83.140625-22-38.105469c-4.414062-7.640625-1.785156-17.445313 5.855469-21.855469l84.742188-48.925781c0-.003906.003906-.003906.003906-.003906.910156-.523438 1.851563-.945313 2.8125-1.273438.351563-.101562.703125-.203125 1.054687-.308593 6.820313-1.820313 14.292969 1.042968 17.984376 7.441406l22 38.105468c2.140624 3.699219 2.707031 8.011719 1.601562 12.140626-1.105469 4.128906-3.753906 7.578124-7.457031 9.714843l-84.742188 48.925781c-7.640625 4.414063-17.445312 1.785157-21.855469-5.855468zm162.054688 30.351562c-1.105469 4.128906-3.753906 7.578125-7.457031 9.714844l-84.742188 48.929688c-7.640625 4.40625-17.445312 1.785156-21.855469-5.855469l-22-38.105469c-4.410156-7.640625-1.785156-17.445312 5.855469-21.855469l84.742188-48.929687c7.644531-4.410156 17.445312-1.78125 21.855469 5.855468l22 38.105469c2.140624 3.699219 2.707031 8.011719 1.601562 12.140625zm0 0"/><path d="m79.789062 392.082031c-15.390624 1.222657-26.921874 14.734375-25.699218 30.125.589844 7.457031 4.050781 14.234375 9.738281 19.089844 5.113281 4.363281 11.480469 6.699219 18.128906 6.699219.746094 0 1.5-.027344 2.257813-.089844 7.457031-.589844 14.234375-4.046875 19.089844-9.738281 4.851562-5.6875 7.199218-12.929688 6.609374-20.386719-1.21875-15.386719-14.722656-26.933594-30.125-25.699219zm8.296876 33.105469c-1.386719 1.625-3.320313 2.613281-5.453126 2.78125-2.121093.175781-4.195312-.5-5.824218-1.886719-1.625-1.386719-2.613282-3.324219-2.78125-5.453125-.167969-2.132812.503906-4.199218 1.890625-5.824218 1.386719-1.628907 3.320312-2.613282 5.453125-2.785157.214844-.015625.429687-.023437.644531-.023437 1.898437 0 3.71875.667968 5.179687 1.914062 1.625 1.386719 2.613282 3.324219 2.78125 5.453125.167969 2.132813-.503906 4.199219-1.890624 5.824219zm0 0"/><path d="m155.914062 276.484375c-.589843-7.453125-4.050781-14.234375-9.742187-19.085937-5.6875-4.855469-12.925781-7.203126-20.382813-6.613282-7.457031.59375-14.234374 4.050782-19.089843 9.742188-4.855469 5.6875-7.203125 12.929687-6.609375 20.382812.589844 7.457032 4.050781 14.238282 9.738281 19.089844 5.113281 4.363281 11.480469 6.699219 18.125 6.699219.75 0 1.503906-.027344 2.261719-.089844 7.457031-.589844 14.234375-4.046875 19.089844-9.738281 4.851562-5.691406 7.199218-12.929688 6.609374-20.386719zm-21.828124 7.40625c-1.386719 1.625-3.320313 2.613281-5.453126 2.78125-2.128906.171875-4.199218-.5-5.824218-1.886719-1.625-1.386718-2.613282-3.324218-2.78125-5.457031-.167969-2.128906.503906-4.195313 1.890625-5.820313s3.320312-2.613281 5.453125-2.785156c.214844-.015625.429687-.023437.644531-.023437 1.898437 0 3.71875.667969 5.179687 1.914062 1.625 1.386719 2.613282 3.324219 2.78125 5.453125.167969 2.128906-.503906 4.199219-1.890624 5.824219zm0 0"/><path d="m502.171875 271.015625c-5.691406-4.855469-12.933594-7.195313-20.386719-6.609375-7.453125.589844-14.234375 4.046875-19.085937 9.738281-4.855469 5.6875-7.203125 12.929688-6.613281 20.386719.59375 7.453125 4.050781 14.234375 9.742187 19.085938 5.113281 4.363281 11.476563 6.703124 18.125 6.703124.75 0 1.503906-.03125 2.257813-.089843 7.457031-.59375 14.238281-4.050781 19.089843-9.742188 4.855469-5.6875 7.203125-12.929687 6.609375-20.382812-.589844-7.457031-4.046875-14.238281-9.738281-19.089844zm-12.085937 26.492187c-1.386719 1.625-3.324219 2.613282-5.453126 2.78125-2.125.175782-4.199218-.5-5.824218-1.886718-1.625-1.386719-2.613282-3.324219-2.78125-5.453125-.171875-2.132813.5-4.199219 1.886718-5.824219 1.386719-1.625 3.324219-2.613281 5.453126-2.78125.21875-.019531.433593-.027344.648437-.027344 1.898437 0 3.71875.667969 5.179687 1.914063 1.625 1.386719 2.613282 3.324219 2.78125 5.453125.167969 2.132812-.503906 4.199218-1.890624 5.824218zm0 0"/><path d="m180.515625 352.882812h-16.847656c-5.523438 0-10 4.480469-10 10 0 5.523438 4.476562 10 10 10h16.847656c5.523437 0 10-4.476562 10-10 0-5.519531-4.476563-10-10-10zm0 0"/><path d="m458.832031 445.640625h-24.949219c-5.523437 0-10 4.476563-10 10 0 5.519531 4.476563 10 10 10h24.949219c5.523438 0 10-4.480469 10-10 0-5.523437-4.476562-10-10-10zm0 0"/><path d="m393.882812 445.644531c-2.632812 0-5.210937 1.058594-7.070312 2.917969s-2.929688 4.441406-2.929688 7.082031c0 2.628907 1.066407 5.199219 2.929688 7.070313 1.859375 1.859375 4.4375 2.929687 7.070312 2.929687 2.628907 0 5.207032-1.070312 7.066407-2.929687 1.859375-1.871094 2.933593-4.441406 2.933593-7.070313 0-2.640625-1.070312-5.222656-2.933593-7.082031-1.859375-1.859375-4.4375-2.917969-7.066407-2.917969zm0 0"/><path d="m220.925781 448.398438h-18.65625c-5.519531 0-10 4.476562-10 10 0 5.523437 4.480469 10 10 10h18.65625c5.519531 0 10-4.476563 10-10 0-5.523438-4.476562-10-10-10zm0 0"/><path d="m68.332031 327.660156c0-5.519531-4.476562-10-10-10h-12.785156c-5.519531 0-10 4.480469-10 10 0 5.523438 4.480469 10 10 10h12.785156c5.523438 0 10-4.476562 10-10zm0 0"/></svg>